<svg width="44" height="44" viewBox="0 0 44 44" fill="none" xmlns="http://www.w3.org/2000/svg">
<path d="M15.75 23.5625L20.4375 28.25L28.25 17.3125M40.75 22C40.75 24.4623 40.265 26.9005 39.3227 29.1753C38.3805 31.4502 36.9993 33.5172 35.2582 35.2582C33.5172 36.9993 31.4502 38.3805 29.1753 39.3227C26.9005 40.265 24.4623 40.75 22 40.75C19.5377 40.75 17.0995 40.265 14.8247 39.3227C12.5498 38.3805 10.4828 36.9993 8.74175 35.2582C7.00065 33.5172 5.61953 31.4502 4.67726 29.1753C3.73498 26.9005 3.25 24.4623 3.25 22C3.25 17.0272 5.22544 12.2581 8.74175 8.74175C12.2581 5.22544 17.0272 3.25 22 3.25C26.9728 3.25 31.7419 5.22544 35.2582 8.74175C38.7746 12.2581 40.75 17.0272 40.75 22Z" stroke="#246AF3" stroke-width="5" stroke-linecap="round" stroke-linejoin="round"/>
</svg>
